<?xml version="1.0" encoding="UTF-8"?>
<svg id="Layer_1" data-name="Layer 1" xmlns="http://www.w3.org/2000/svg" viewBox="0 0 468.18 64.53">
  <defs>
    <style>
      .cls-1 {
        fill: #205697;
      }
    </style>
  </defs>
  <polygon class="cls-1" points="244.75 63.19 227.9 63.33 227.76 40.3 206.44 40.33 206.39 63.29 189.52 63.28 189.53 2.65 206.36 2.73 206.43 25.32 227.81 25.31 227.86 2.71 244.72 2.64 244.75 63.19"/>
  <path class="cls-1" d="M56.4,2.65l.04,34.24c.01,11.98-5.16,22.69-17.36,26.05-7.3,2.01-14.83,2.05-22.2-.05C7.27,60.16.32,51.8.25,41.49L0,2.64l17.03.07.24,36.18c.05,6.83,5.63,10.78,11.87,10.28,4.96-.4,9.81-3.77,9.85-9.43l.24-37.02,17.17-.07Z"/>
  <path class="cls-1" d="M468.18,63.23l-16.44-.07-.12-25.86c-.02-4.09-2.33-7.14-6.27-7.22-3.46-.08-6.99,2.47-7.01,6.75l-.16,26.46h-16.39s-.01-63.11-.01-63.11l16.44-.19.03,22.63c6.19-8.13,17.24-9.95,24.9-3.45,3.16,2.68,4.96,7.36,4.97,11.53l.07,32.52Z"/>
  <path class="cls-1" d="M87.85,46.17c7.33,5.72,16.76,2.62,21.88-4.47l12.69,8.96c-5.84,9.2-15.31,13.56-25.69,13.86-18.71.54-32.93-13.98-32.4-32.51.46-16.31,12.9-29.44,29.38-30.45,11.27-.69,22.05,3.02,28.34,12.63l-12.46,9.58-3.78-3.35c-5.5-4.87-14.31-4.98-19.52.61-6.51,6.98-6.23,19.06,1.56,25.13Z"/>
  <path class="cls-1" d="M316.34,63.98c-7.38-1.26-11.74-6.71-11.96-13.75s3.46-12.22,10.06-14.17c6.23-1.84,12.7-1.44,19.4.51.7-3.76-1.87-7.14-5.75-7.83-5.53-.99-10.68.27-16.3,2.23l-3.37-11.65c9.26-3.75,18.85-4.69,28.34-2.52,7.63,1.74,13.26,7.88,13.3,15.82l.18,30.62-16.06.09-.4-4.54c-4.45,4.57-10.78,6.32-17.44,5.18ZM333.56,44.01c-2.97-1.19-6.11-1.23-8.67-.73-3.25.64-4.94,3.44-4.47,6.46.41,2.61,2.99,4.33,5.99,4.17,2.5-.14,5.16-1.25,6.41-3.09s1.95-5.43.74-6.82Z"/>
  <path class="cls-1" d="M288.85,47.16l9.04,7.53c-8.12,12.16-28.53,12.94-38.92,2.38-4.89-4.98-6.69-11.72-6.41-18.59.57-14.04,11.75-24.12,25.68-23.13,15.68,1.11,22.93,14.4,21.42,29.07l-31.03.02c.72,3.81,3.56,6.6,7.31,7.29,4.76.87,9.33-.64,12.9-4.58ZM284.19,35.98c-.15-3.32-1.87-6.32-4.41-7.56-2.86-1.39-5.73-.93-8.41.87-1.47,1.87-2.4,3.66-3.28,6.62l16.1.07Z"/>
  <path class="cls-1" d="M414.65,48.93l-.06,12.67c-5.71,2.84-11.86,3.36-18.01,1.78-5.53-1.42-9.11-6.45-9.17-12.26l-.2-21.42-5.36-.06v-13.11s5.36-.24,5.36-.24l.1-11.7,16.53.02.1,11.65,10.85.2.03,13.14-10.93.1.04,17.01c0,1.57,1.75,3.44,3.35,3.38,2.56-.09,3.95-.44,7.39-1.16Z"/>
  <polygon class="cls-1" points="375.48 63.23 358.87 63.31 358.86 .03 375.48 .03 375.48 63.23"/>
  <path class="cls-1" d="M148.66,63.21l-16.04.16c-.45-.59-1.05-2.14-1.05-2.94V2.58s17.09.31,17.09.31v60.32Z"/>
</svg>